<?xml version='1.0' encoding='utf-8'?>
<!DOCTYPE svg PUBLIC '-//W3C//DTD SVG 1.1//EN' 'http://www.w3.org/Graphics/SVG/1.1/DTD/svg11.dtd'>
<svg version="1.1" xmlns="http://www.w3.org/2000/svg" viewBox="0 0 512 512" xmlns:xlink="http://www.w3.org/1999/xlink" enable-background="new 0 0 512 512">
  <g>
    <path d="m423,26.5c-13.8-10.4-29.6-16-45.7-16-44.3,0-80.1,39.6-81.3,90.1-0.6,23 6.3,45.1 19.5,62.7-9.3,12.4-15.5,27.1-18.1,42.8-11.4,11.8-27.4,36.1-40.4,59.6-14-25.3-31.3-51.4-42.9-62.1-2.8-14.7-8.9-28.6-17.7-40.3 13.2-17.6 20.1-39.7 19.5-62.7-1.3-50.5-37-90.1-81.3-90.1-16.1,0-31.9,5.5-45.7,16-57.6,43.8-82.5,154.3-77.2,240.9 4.7,77.2 31.5,133.8 75.4,159.4 13.2,7.7 27.9,11.7 42.8,11.7 47,0 84-37.5 86.1-87.2 1-24.5-6.3-47.9-20.7-66.2 5.2-6.6 9.5-14 12.8-21.8 9.3,14.6 21.8,34.8 28.6,49.2v167.6c0,11.3 9.1,20.5 20.4,20.5 11.3,0 20.4-9.2 20.4-20.5v-167.2c6.4-13.8 18.3-33.3 27.4-47.7 3.2,7.1 7.2,13.8 12,19.9-14.4,18.3-21.8,41.7-20.7,66.2 2.1,49.7 39.1,87.2 86.1,87.2 14.8,0 29.6-4.1 42.8-11.7 43.9-25.6 70.7-82.2 75.4-159.4 5.1-86.6-19.8-197.1-77.5-240.9zm-261.1,282.4c9,10.7 13.9,25.5 13.2,40.6-1.3,31.2-24.3,48-45.3,48-7.7,0-15.2-2.1-22.2-6.2-31.3-18.2-51.4-64.3-55.1-126.5-5.2-85.4 21.7-175.8 61.2-205.8 6.7-5.1 13.8-7.7 21-7.7 18.9,0 39.7,19.2 40.5,50.2 0.4,14.4-4.1,28.1-12.5,38.6-10.7,13.2-10.7,33.1-0.1,46.1 8.1,10 12.6,23.2 12.6,37.1 0,14.4-4.8,27.9-13.4,38-11.5,13.6-11.5,34 0.1,47.6zm297.7-44c-3.8,62.2-23.9,108.3-55.1,126.5-7,4.1-14.5,6.2-22.2,6.2-21,0-44-16.8-45.3-48-0.6-15.2 4.2-30 13.2-40.6 11.6-13.6 11.6-34.1 0.1-47.5-8.6-10.1-13.4-23.6-13.4-38 0-13.9 4.5-27 12.6-37 10.6-13.1 10.6-32.9-0.1-46.1-8.4-10.4-12.8-24.1-12.5-38.5 0.8-31 21.6-50.2 40.5-50.2 7.3,0 14.3,2.6 21,7.7 39.5,29.7 66.3,120.1 61.2,205.5z"/>
  </g>
</svg>
